<svg width="67" height="67" viewBox="0 0 67 67" fill="none" xmlns="http://www.w3.org/2000/svg">
<path d="M0 16C0 7.16345 7.16344 0 16 0H50.9609C59.7975 0 66.9609 7.16344 66.9609 16V50.9609C66.9609 59.7975 59.7975 66.9609 50.9609 66.9609H16C7.16345 66.9609 0 59.7975 0 50.9609V16Z" fill="white" fill-opacity="0.05"/>
<path d="M16 0.5H50.9609C59.5214 0.5 66.4609 7.43959 66.4609 16V50.9609C66.4609 59.5214 59.5214 66.4609 50.9609 66.4609H16C7.43959 66.4609 0.5 59.5213 0.5 50.9609V16C0.500001 7.43959 7.43959 0.5 16 0.5Z" stroke="white" stroke-opacity="0.1"/>
<path d="M33.4796 24.1495C33.4812 23.6163 33.3761 23.0882 33.1706 22.5963C32.9651 22.1043 32.6633 21.6584 32.2829 21.2848C31.9025 20.9112 31.4513 20.6174 30.9558 20.4207C30.4602 20.224 29.9303 20.1284 29.3972 20.1395C28.8642 20.1507 28.3388 20.2682 27.8518 20.4854C27.3649 20.7025 26.9263 21.0149 26.5618 21.404C26.1974 21.7932 25.9144 22.2513 25.7296 22.7514C25.5447 23.2515 25.4618 23.7835 25.4855 24.3161C24.702 24.5176 23.9746 24.8947 23.3584 25.4189C22.7422 25.9431 22.2533 26.6007 21.9289 27.3418C21.6044 28.0829 21.4529 28.8882 21.4857 29.6965C21.5185 30.5049 21.7349 31.2952 22.1184 32.0076C21.4441 32.5553 20.9139 33.2596 20.5739 34.059C20.2338 34.8584 20.0943 35.7288 20.1673 36.5944C20.2404 37.4601 20.5238 38.2948 20.993 39.0259C21.4623 39.757 22.103 40.3624 22.8595 40.7894C22.7661 41.5122 22.8218 42.2465 23.0233 42.9469C23.2248 43.6473 23.5677 44.299 24.0309 44.8617C24.4941 45.4244 25.0678 45.8861 25.7164 46.2184C26.3651 46.5507 27.075 46.7465 27.8023 46.7937C28.5296 46.8409 29.2588 46.7385 29.945 46.4928C30.6311 46.2472 31.2596 45.8634 31.7917 45.3653C32.3237 44.8672 32.748 44.2653 33.0383 43.5968C33.3286 42.9283 33.4788 42.2074 33.4796 41.4786V24.1495Z" stroke="#00FF88" stroke-width="2" stroke-linecap="round" stroke-linejoin="round"/>
<path d="M29.4805 34.8135C30.5996 34.4198 31.5769 33.7031 32.2887 32.754C33.0005 31.8049 33.4149 30.666 33.4795 29.4814" stroke="#00FF88" stroke-width="2" stroke-linecap="round" stroke-linejoin="round"/>
<path d="M25.4863 24.3159C25.5127 24.9607 25.6947 25.5896 26.0169 26.1488" stroke="#00FF88" stroke-width="2" stroke-linecap="round" stroke-linejoin="round"/>
<path d="M22.1191 32.0088C22.363 31.8102 22.624 31.6336 22.8989 31.481" stroke="#00FF88" stroke-width="2" stroke-linecap="round" stroke-linejoin="round"/>
<path d="M25.4834 41.4786C24.5647 41.479 23.6615 41.2421 22.8613 40.7908" stroke="#00FF88" stroke-width="2" stroke-linecap="round" stroke-linejoin="round"/>
<path d="M33.4805 34.8135H38.8125" stroke="#00FF88" stroke-width="2" stroke-linecap="round" stroke-linejoin="round"/>
<path d="M33.4805 41.4785H41.4785C42.1856 41.4785 42.8637 41.7594 43.3637 42.2594C43.8636 42.7593 44.1445 43.4375 44.1445 44.1445V45.4775" stroke="#00FF88" stroke-width="2" stroke-linecap="round" stroke-linejoin="round"/>
<path d="M33.4805 28.1484H44.1445" stroke="#00FF88" stroke-width="2" stroke-linecap="round" stroke-linejoin="round"/>
<path d="M38.8125 28.1484V24.1494C38.8125 23.4423 39.0934 22.7642 39.5934 22.2643C40.0933 21.7643 40.7714 21.4834 41.4785 21.4834" stroke="#00FF88" stroke-width="2" stroke-linecap="round" stroke-linejoin="round"/>
<path d="M38.813 35.48C39.1811 35.48 39.4795 35.1816 39.4795 34.8135C39.4795 34.4454 39.1811 34.147 38.813 34.147C38.4449 34.147 38.1465 34.4454 38.1465 34.8135C38.1465 35.1816 38.4449 35.48 38.813 35.48Z" stroke="#00FF88" stroke-width="2" stroke-linecap="round" stroke-linejoin="round"/>
<path d="M41.479 22.1499C41.8471 22.1499 42.1455 21.8515 42.1455 21.4834C42.1455 21.1153 41.8471 20.8169 41.479 20.8169C41.1109 20.8169 40.8125 21.1153 40.8125 21.4834C40.8125 21.8515 41.1109 22.1499 41.479 22.1499Z" stroke="#00FF88" stroke-width="2" stroke-linecap="round" stroke-linejoin="round"/>
<path d="M44.145 46.144C44.5131 46.144 44.8115 45.8456 44.8115 45.4775C44.8115 45.1094 44.5131 44.811 44.145 44.811C43.7769 44.811 43.4785 45.1094 43.4785 45.4775C43.4785 45.8456 43.7769 46.144 44.145 46.144Z" stroke="#00FF88" stroke-width="2" stroke-linecap="round" stroke-linejoin="round"/>
<path d="M44.145 28.8149C44.5131 28.8149 44.8115 28.5165 44.8115 28.1484C44.8115 27.7803 44.5131 27.4819 44.145 27.4819C43.7769 27.4819 43.4785 27.7803 43.4785 28.1484C43.4785 28.5165 43.7769 28.8149 44.145 28.8149Z" stroke="#00FF88" stroke-width="2" stroke-linecap="round" stroke-linejoin="round"/>
</svg>
