<svg width="67" height="67" viewBox="0 0 67 67" fill="none" xmlns="http://www.w3.org/2000/svg">
<path d="M0 16C0 7.16345 7.16344 0 16 0H50.9609C59.7975 0 66.9609 7.16344 66.9609 16V50.9609C66.9609 59.7975 59.7975 66.9609 50.9609 66.9609H16C7.16345 66.9609 0 59.7975 0 50.9609V16Z" fill="white" fill-opacity="0.05"/>
<path d="M16 0.5H50.9609C59.5214 0.5 66.4609 7.43959 66.4609 16V50.9609C66.4609 59.5214 59.5214 66.4609 50.9609 66.4609H16C7.43959 66.4609 0.5 59.5213 0.5 50.9609V16C0.500001 7.43959 7.43959 0.5 16 0.5Z" stroke="white" stroke-opacity="0.1"/>
<path d="M22.8161 36.1465C22.5638 36.1474 22.3165 36.0767 22.1028 35.9426C21.8892 35.8085 21.718 35.6165 21.6091 35.3889C21.5002 35.1614 21.4581 34.9076 21.4877 34.6571C21.5173 34.4066 21.6174 34.1696 21.7763 33.9737L34.9731 20.3771C35.0721 20.2628 35.207 20.1856 35.3556 20.1581C35.5043 20.1306 35.6579 20.1545 35.7912 20.2258C35.9245 20.2971 36.0296 20.4116 36.0893 20.5505C36.1489 20.6894 36.1596 20.8445 36.1195 20.9902L33.5601 29.0149C33.4846 29.2169 33.4593 29.4342 33.4863 29.6481C33.5132 29.8621 33.5917 30.0663 33.7149 30.2432C33.8381 30.4202 34.0024 30.5646 34.1937 30.6641C34.3849 30.7636 34.5975 30.8152 34.8131 30.8145H44.1442C44.3964 30.8136 44.6438 30.8844 44.8574 31.0185C45.0711 31.1526 45.2423 31.3446 45.3512 31.5721C45.4601 31.7997 45.5021 32.0534 45.4725 32.3039C45.4429 32.5544 45.3429 32.7914 45.1839 32.9873L31.9872 46.584C31.8882 46.6983 31.7533 46.7755 31.6046 46.803C31.456 46.8304 31.3024 46.8066 31.1691 46.7353C31.0357 46.664 30.9306 46.5495 30.871 46.4106C30.8113 46.2716 30.8007 46.1166 30.8408 45.9708L33.4002 37.9461C33.4756 37.7441 33.501 37.5268 33.474 37.3129C33.4471 37.099 33.3686 36.8948 33.2454 36.7178C33.1222 36.5409 32.9579 36.3965 32.7666 36.297C32.5753 36.1975 32.3627 36.1458 32.1471 36.1465H22.8161Z" stroke="#FACC15" stroke-width="2" stroke-linecap="round" stroke-linejoin="round"/>
</svg>
