<svg width="64" height="64" viewBox="0 0 64 64" fill="none" xmlns="http://www.w3.org/2000/svg">
<path d="M0 16C0 7.16344 7.16344 0 16 0H47.9844C56.8209 0 63.9844 7.16344 63.9844 16V47.9844C63.9844 56.8209 56.8209 63.9844 47.9844 63.9844H16C7.16344 63.9844 0 56.8209 0 47.9844V16Z" fill="white" fill-opacity="0.05"/>
<path d="M16 0.5H47.9844C56.5448 0.5 63.4844 7.43959 63.4844 16V47.9844C63.4844 56.5448 56.5448 63.4844 47.9844 63.4844H16C7.43959 63.4844 0.5 56.5448 0.5 47.9844V16C0.5 7.43959 7.43959 0.5 16 0.5Z" stroke="white" stroke-opacity="0.1"/>
<path d="M40.9923 40.9923L36.6523 36.6523" stroke="#00FF88" stroke-width="2" stroke-linecap="round" stroke-linejoin="round"/>
<path d="M30.9922 38.9922C35.4105 38.9922 38.9922 35.4105 38.9922 30.9922C38.9922 26.5739 35.4105 22.9922 30.9922 22.9922C26.5739 22.9922 22.9922 26.5739 22.9922 30.9922C22.9922 35.4105 26.5739 38.9922 30.9922 38.9922Z" stroke="#00FF88" stroke-width="2" stroke-linecap="round" stroke-linejoin="round"/>
</svg>
