<svg width="67" height="67" viewBox="0 0 67 67" fill="none" xmlns="http://www.w3.org/2000/svg">
<path d="M0 16C0 7.16345 7.16344 0 16 0H50.9609C59.7975 0 66.9609 7.16344 66.9609 16V50.9609C66.9609 59.7975 59.7975 66.9609 50.9609 66.9609H16C7.16345 66.9609 0 59.7975 0 50.9609V16Z" fill="white" fill-opacity="0.05"/>
<path d="M16 0.5H50.9609C59.5214 0.5 66.4609 7.43959 66.4609 16V50.9609C66.4609 59.5214 59.5214 66.4609 50.9609 66.4609H16C7.43959 66.4609 0.5 59.5213 0.5 50.9609V16C0.500001 7.43959 7.43959 0.5 16 0.5Z" stroke="white" stroke-opacity="0.1"/>
<path d="M42.8125 26.8154V22.8164C42.8125 22.4629 42.6721 22.1238 42.4221 21.8738C42.1721 21.6238 41.833 21.4834 41.4795 21.4834H24.1504C23.4433 21.4834 22.7652 21.7643 22.2652 22.2643C21.7653 22.7642 21.4844 23.4423 21.4844 24.1494C21.4844 24.8565 21.7653 25.5346 22.2652 26.0346C22.7652 26.5345 23.4433 26.8154 24.1504 26.8154H44.1455C44.499 26.8154 44.8381 26.9559 45.0881 27.2059C45.3381 27.4558 45.4785 27.7949 45.4785 28.1484V33.4805M45.4785 33.4805H41.4795C40.7724 33.4805 40.0943 33.7614 39.5943 34.2613C39.0944 34.7613 38.8135 35.4394 38.8135 36.1465C38.8135 36.8536 39.0944 37.5317 39.5943 38.0316C40.0943 38.5316 40.7724 38.8125 41.4795 38.8125H45.4785C45.8321 38.8125 46.1711 38.6721 46.4211 38.4221C46.6711 38.1721 46.8115 37.833 46.8115 37.4795V34.8135C46.8115 34.4599 46.6711 34.1209 46.4211 33.8709C46.1711 33.6209 45.8321 33.4805 45.4785 33.4805Z" stroke="#C084FC" stroke-width="2" stroke-linecap="round" stroke-linejoin="round"/>
<path d="M21.4844 24.1494V42.8115C21.4844 43.5186 21.7653 44.1967 22.2652 44.6967C22.7652 45.1967 23.4433 45.4775 24.1504 45.4775H44.1455C44.499 45.4775 44.8381 45.3371 45.0881 45.0871C45.3381 44.8371 45.4785 44.4981 45.4785 44.1445V38.8125" stroke="#C084FC" stroke-width="2" stroke-linecap="round" stroke-linejoin="round"/>
</svg>
