<svg width="67" height="67" viewBox="0 0 67 67" fill="none" xmlns="http://www.w3.org/2000/svg">
<path d="M0 16C0 7.16345 7.16344 0 16 0H50.9609C59.7975 0 66.9609 7.16344 66.9609 16V50.9609C66.9609 59.7975 59.7975 66.9609 50.9609 66.9609H16C7.16345 66.9609 0 59.7975 0 50.9609V16Z" fill="white" fill-opacity="0.05"/>
<path d="M16 0.5H50.9609C59.5214 0.5 66.4609 7.43959 66.4609 16V50.9609C66.4609 59.5214 59.5214 66.4609 50.9609 66.4609H16C7.43959 66.4609 0.5 59.5213 0.5 50.9609V16C0.500001 7.43959 7.43959 0.5 16 0.5Z" stroke="white" stroke-opacity="0.1"/>
<path d="M44.1445 34.8136C44.1445 41.4786 39.479 44.8111 33.9337 46.744C33.6433 46.8424 33.3279 46.8377 33.0406 46.7307C27.4819 44.8111 22.8164 41.4786 22.8164 34.8136V25.4825C22.8164 25.129 22.9568 24.7899 23.2068 24.54C23.4568 24.29 23.7959 24.1495 24.1494 24.1495C26.8154 24.1495 30.1479 22.5499 32.4674 20.5237C32.7498 20.2825 33.109 20.1499 33.4805 20.1499C33.8519 20.1499 34.2112 20.2825 34.4936 20.5237C36.8263 22.5632 40.1455 24.1495 42.8115 24.1495C43.1651 24.1495 43.5041 24.29 43.7541 24.54C44.0041 24.7899 44.1445 25.129 44.1445 25.4825V34.8136Z" stroke="#00D9FF" stroke-width="2" stroke-linecap="round" stroke-linejoin="round"/>
<path d="M29.4805 33.4805L32.1465 36.1465L37.4785 30.8145" stroke="#00D9FF" stroke-width="2" stroke-linecap="round" stroke-linejoin="round"/>
</svg>
