<svg width="1300" height="250" viewBox="0 0 1300 250" fill="none" xmlns="http://www.w3.org/2000/svg">
<g clip-path="url(#clip0_40706_2865)">
<rect width="1300" height="250" rx="40" fill="url(#paint0_linear_40706_2865)"/>
<path d="M853.939 413.626C767.896 37.5343 1401.71 -88.1628 1729.38 -104V413.626H853.939Z" fill="url(#paint1_radial_40706_2865)"/>
<path d="M760.494 279.658C972.741 -42.5403 1501.7 328.362 1739.64 554.088L1365.66 912L760.494 279.658Z" fill="url(#paint2_radial_40706_2865)"/>
<path d="M371.706 413.626C457.749 37.5343 -176.068 -88.1628 -503.732 -104V413.626H371.706Z" fill="url(#paint3_radial_40706_2865)"/>
<path d="M465.15 279.658C252.903 -42.5403 -276.053 328.362 -514 554.088L-140.015 912L465.15 279.658Z" fill="url(#paint4_radial_40706_2865)"/>
</g>
<rect x="1.5" y="1.5" width="1297" height="247" rx="38.5" stroke="url(#paint5_linear_40706_2865)" stroke-width="3"/>
<defs>
<linearGradient id="paint0_linear_40706_2865" x1="650" y1="0" x2="650" y2="250" gradientUnits="userSpaceOnUse">
<stop stop-color="#121212"/>
<stop offset="1" stop-color="#121212"/>
</linearGradient>
<radialGradient id="paint1_radial_40706_2865" cx="0" cy="0" r="1" gradientTransform="matrix(135.068 188.796 322.201 -230.389 1091.56 -33.9831)" gradientUnits="userSpaceOnUse">
<stop stop-color="#00FF88"/>
<stop offset="1" stop-color="#08032E" stop-opacity="0"/>
</radialGradient>
<radialGradient id="paint2_radial_40706_2865" cx="0" cy="0" r="1" gradientUnits="userSpaceOnUse" gradientTransform="translate(1248.15 141.795) rotate(100.685) scale(232.129 396.051)">
<stop stop-color="#00FF88"/>
<stop offset="1" stop-color="#08032E" stop-opacity="0"/>
</radialGradient>
<radialGradient id="paint3_radial_40706_2865" cx="0" cy="0" r="1" gradientTransform="matrix(-135.068 188.796 -322.201 -230.389 134.087 -33.9831)" gradientUnits="userSpaceOnUse">
<stop stop-color="#00FF88"/>
<stop offset="1" stop-color="#08032E" stop-opacity="0"/>
</radialGradient>
<radialGradient id="paint4_radial_40706_2865" cx="0" cy="0" r="1" gradientUnits="userSpaceOnUse" gradientTransform="translate(-22.5066 141.795) rotate(79.3155) scale(232.129 396.051)">
<stop stop-color="#00FF88"/>
<stop offset="1" stop-color="#08032E" stop-opacity="0"/>
</radialGradient>
<linearGradient id="paint5_linear_40706_2865" x1="650" y1="0" x2="650" y2="250" gradientUnits="userSpaceOnUse">
<stop stop-color="white"/>
<stop offset="0.921053" stop-color="white" stop-opacity="0"/>
</linearGradient>
<clipPath id="clip0_40706_2865">
<rect width="1300" height="250" rx="40" fill="white"/>
</clipPath>
</defs>
</svg>
