<svg width="64" height="64" viewBox="0 0 64 64" fill="none" xmlns="http://www.w3.org/2000/svg">
<path d="M0 16C0 7.16344 7.16344 0 16 0H47.9844C56.8209 0 63.9844 7.16344 63.9844 16V47.9844C63.9844 56.8209 56.8209 63.9844 47.9844 63.9844H16C7.16344 63.9844 0 56.8209 0 47.9844V16Z" fill="white" fill-opacity="0.05"/>
<path d="M16 0.5H47.9844C56.5448 0.5 63.4844 7.43959 63.4844 16V47.9844C63.4844 56.5448 56.5448 63.4844 47.9844 63.4844H16C7.43959 63.4844 0.5 56.5448 0.5 47.9844V16C0.5 7.43959 7.43959 0.5 16 0.5Z" stroke="white" stroke-opacity="0.1"/>
<path d="M38.9922 26.9922V23.9922C38.9922 23.727 38.8868 23.4726 38.6993 23.2851C38.5118 23.0975 38.2574 22.9922 37.9922 22.9922H24.9922C24.4618 22.9922 23.953 23.2029 23.578 23.578C23.2029 23.953 22.9922 24.4618 22.9922 24.9922C22.9922 25.5226 23.2029 26.0313 23.578 26.4064C23.953 26.7815 24.4618 26.9922 24.9922 26.9922H39.9922C40.2574 26.9922 40.5118 27.0975 40.6993 27.2851C40.8868 27.4726 40.9922 27.727 40.9922 27.9922V31.9922M40.9922 31.9922H37.9922C37.4618 31.9922 36.953 32.2029 36.578 32.578C36.2029 32.953 35.9922 33.4618 35.9922 33.9922C35.9922 34.5226 36.2029 35.0313 36.578 35.4064C36.953 35.7815 37.4618 35.9922 37.9922 35.9922H40.9922C41.2574 35.9922 41.5118 35.8868 41.6993 35.6993C41.8868 35.5118 41.9922 35.2574 41.9922 34.9922V32.9922C41.9922 32.727 41.8868 32.4726 41.6993 32.2851C41.5118 32.0975 41.2574 31.9922 40.9922 31.9922Z" stroke="#00FF88" stroke-width="2" stroke-linecap="round" stroke-linejoin="round"/>
<path d="M22.9922 24.9922V38.9922C22.9922 39.5226 23.2029 40.0313 23.578 40.4064C23.953 40.7815 24.4618 40.9922 24.9922 40.9922H39.9922C40.2574 40.9922 40.5118 40.8868 40.6993 40.6993C40.8868 40.5118 40.9922 40.2574 40.9922 39.9922V35.9922" stroke="#00FF88" stroke-width="2" stroke-linecap="round" stroke-linejoin="round"/>
</svg>
