<svg width="51" height="44" viewBox="0 0 51 44" fill="none" xmlns="http://www.w3.org/2000/svg">
<rect width="51" height="44" rx="12" fill="#00FF88" fill-opacity="0.2"/>
<path d="M26.3252 26.7399C26.2581 26.7399 26.1902 26.7279 26.1254 26.7031L24.0002 25.8943L21.8751 26.7031C21.7551 26.7488 21.6231 26.752 21.5011 26.7122C21.379 26.6724 21.2743 26.5921 21.2042 26.4845L19.9637 24.5833L17.7711 23.9908C17.6471 23.9573 17.5383 23.8823 17.4628 23.7785C17.3873 23.6745 17.3496 23.5479 17.356 23.4196L17.4692 21.1509L16.0431 19.379C15.9627 19.279 15.9189 19.1544 15.9189 19.0261C15.919 18.8977 15.963 18.7732 16.0435 18.6733L17.4692 16.9051L17.356 14.6326C17.3497 14.5044 17.3874 14.3779 17.4629 14.2741C17.5384 14.1702 17.6472 14.0954 17.7711 14.0619L19.9637 13.469L21.2042 11.5678C21.2742 11.4602 21.379 11.3798 21.5011 11.34C21.6231 11.3002 21.7551 11.3034 21.8751 11.3491L24.0002 12.158L26.1254 11.3491C26.1946 11.3219 26.2686 11.3086 26.343 11.3102C26.4174 11.3117 26.4907 11.328 26.5588 11.3581C26.6269 11.3882 26.6883 11.4315 26.7395 11.4855C26.7907 11.5395 26.8307 11.6031 26.8572 11.6727C26.8836 11.7422 26.896 11.8164 26.8936 11.8907C26.8912 11.9651 26.874 12.0383 26.8431 12.106C26.8123 12.1737 26.7682 12.2346 26.7137 12.2852C26.6591 12.3358 26.595 12.375 26.5251 12.4006L24.2001 13.2856C24.0711 13.3344 23.9294 13.3344 23.8004 13.2856L21.8987 12.5619L20.7887 14.2633C20.7132 14.379 20.5978 14.463 20.4644 14.4991L18.5024 15.0298L18.6036 17.0634C18.6105 17.2013 18.5665 17.3369 18.4799 17.4444L17.2037 19.0269L18.4799 20.6124C18.5661 20.7196 18.6104 20.855 18.6036 20.9926L18.5024 23.0229L20.4644 23.5531C20.5979 23.5891 20.713 23.6731 20.7887 23.789L21.8987 25.4904L23.8 24.7666C23.9294 24.7179 24.0711 24.7179 24.2001 24.7666L26.1021 25.4904L27.2121 23.789C27.2871 23.6728 27.4026 23.5891 27.5361 23.5528L29.4981 23.0229L29.416 21.3793C29.4122 21.3055 29.4231 21.2317 29.4479 21.162C29.4727 21.0924 29.5109 21.0284 29.5605 20.9736C29.6101 20.9188 29.6699 20.8743 29.7367 20.8426C29.8035 20.8109 29.8758 20.7927 29.9496 20.789C30.2594 20.7819 30.5241 21.0125 30.5395 21.3226L30.6445 23.4193C30.6509 23.5476 30.6132 23.6743 30.5377 23.7782C30.4622 23.8822 30.3534 23.9572 30.2294 23.9908L28.0367 24.5833L26.7962 26.4845C26.6901 26.6476 26.5112 26.7399 26.3252 26.7399Z" fill="white"/>
<path d="M23.9998 23.47C21.5496 23.47 19.5561 21.4765 19.5561 19.0263C19.5561 16.576 21.5496 14.5825 23.9998 14.5825C24.149 14.5825 24.2921 14.6418 24.3976 14.7473C24.5031 14.8528 24.5623 14.9958 24.5623 15.145C24.5623 15.2942 24.5031 15.4373 24.3976 15.5428C24.2921 15.6483 24.149 15.7075 23.9998 15.7075C22.1698 15.7075 20.6811 17.1963 20.6811 19.0263C20.6811 20.8563 22.1698 22.345 23.9998 22.345C24.6985 22.346 25.3796 22.126 25.9458 21.7165C26.5119 21.307 26.934 20.7289 27.1517 20.065C27.1983 19.9233 27.2994 19.8059 27.4326 19.7387C27.5658 19.6714 27.7202 19.6599 27.8619 19.7065C28.0037 19.7532 28.1211 19.8542 28.1883 19.9874C28.2555 20.1206 28.2671 20.275 28.2204 20.4168C27.929 21.3059 27.3638 22.08 26.6057 22.6284C25.8476 23.1768 24.9355 23.4714 23.9998 23.47ZM28.5636 32.6875L28.5298 32.6864C28.4335 32.6806 28.3402 32.6502 28.2591 32.598C28.1779 32.5458 28.1115 32.4736 28.0663 32.3883L24.6876 26.0058C24.6179 25.8739 24.6034 25.7197 24.6473 25.5771C24.6912 25.4346 24.7898 25.3152 24.9216 25.2453C25.0535 25.1759 25.2076 25.1616 25.3501 25.2054C25.4926 25.2493 25.6119 25.3477 25.6821 25.4793L28.6292 31.0465L29.5569 29.7145C29.6657 29.5578 29.8476 29.467 30.0381 29.4741L31.6727 29.5304L28.7154 23.947C28.6785 23.8816 28.6551 23.8094 28.6465 23.7348C28.638 23.6602 28.6444 23.5846 28.6655 23.5125C28.6867 23.4404 28.722 23.3733 28.7695 23.3151C28.817 23.2569 28.8756 23.2088 28.942 23.1736C29.0084 23.1384 29.0811 23.1169 29.156 23.1103C29.2308 23.1037 29.3062 23.1122 29.3777 23.1352C29.4492 23.1582 29.5154 23.1953 29.5723 23.2443C29.6292 23.2933 29.6758 23.3532 29.7092 23.4205L33.1217 29.863C33.1679 29.9502 33.1903 30.048 33.1868 30.1466C33.1832 30.2452 33.1538 30.3411 33.1014 30.4248C32.9949 30.5946 32.8078 30.6985 32.6053 30.6884L30.3051 30.6089L29.0248 32.4464C28.9731 32.5208 28.9041 32.5816 28.8238 32.6236C28.7435 32.6656 28.6542 32.6875 28.5636 32.6875ZM19.4361 32.6875C19.2523 32.6875 19.0798 32.5983 18.9748 32.4464L17.6946 30.6089L15.3943 30.6884C15.2957 30.6922 15.1979 30.6698 15.1107 30.6235C15.0236 30.5772 14.9502 30.5086 14.8982 30.4248C14.8458 30.3411 14.8164 30.2452 14.8129 30.1466C14.8093 30.048 14.8318 29.9502 14.8779 29.863L18.2904 23.4205C18.3625 23.2928 18.4815 23.1983 18.6222 23.1571C18.7629 23.1159 18.9141 23.1312 19.0437 23.1999C19.1733 23.2685 19.2709 23.385 19.3158 23.5246C19.3607 23.6641 19.3494 23.8157 19.2842 23.947L16.3269 29.5304L17.9619 29.4741C18.1532 29.4666 18.3339 29.5578 18.4427 29.7145L19.3704 31.0465L22.3176 25.4793C22.3878 25.3478 22.5072 25.2494 22.6496 25.2056C22.7921 25.1618 22.9461 25.176 23.0781 25.2453C23.2099 25.3152 23.3086 25.4346 23.3525 25.5773C23.3964 25.72 23.3818 25.8742 23.3121 26.0061L19.9333 32.3886C19.8854 32.4789 19.8138 32.5545 19.7262 32.6071C19.6386 32.6598 19.5383 32.6876 19.4361 32.6875Z" fill="white"/>
<path d="M30.8454 21.9963C27.8998 21.9963 25.5039 19.6 25.5039 16.6544C25.5039 13.7088 27.8998 11.3125 30.8454 11.3125C33.791 11.3125 36.1873 13.7088 36.1873 16.6544C36.1873 19.6 33.791 21.9963 30.8454 21.9963ZM30.8454 12.4375C28.5204 12.4375 26.6289 14.3294 26.6289 16.6544C26.6289 18.9794 28.5204 20.8713 30.8454 20.8713C33.1704 20.8713 35.0623 18.9794 35.0623 16.6544C35.0623 14.3294 33.1704 12.4375 30.8454 12.4375Z" fill="white"/>
<path d="M30.0944 18.6864C30.0832 18.6864 30.0712 18.6864 30.0599 18.6853C29.9797 18.6803 29.9014 18.6583 29.8304 18.6206C29.7593 18.5829 29.6972 18.5304 29.6482 18.4666L28.2532 16.6524C28.2082 16.5938 28.1752 16.5269 28.156 16.4556C28.1368 16.3842 28.1319 16.3098 28.1415 16.2366C28.1511 16.1633 28.175 16.0927 28.2119 16.0287C28.2488 15.9647 28.2979 15.9086 28.3565 15.8636C28.4151 15.8186 28.482 15.7855 28.5533 15.7664C28.6246 15.7472 28.6991 15.7423 28.7723 15.7519C28.8456 15.7615 28.9162 15.7854 28.9802 15.8223C29.0442 15.8592 29.1003 15.9083 29.1453 15.9669L30.1466 17.2696L32.5916 14.7898C32.6963 14.6835 32.839 14.6232 32.9881 14.6221C33.1373 14.621 33.2809 14.6792 33.3871 14.7839C33.4934 14.8887 33.5537 15.0313 33.5548 15.1805C33.5559 15.3297 33.4977 15.4732 33.3929 15.5795L30.4949 18.5188C30.4426 18.5718 30.3803 18.614 30.3115 18.6428C30.2428 18.6715 30.169 18.6864 30.0944 18.6864Z" fill="white"/>
</svg>
