<svg width="51" height="44" viewBox="0 0 51 44" fill="none" xmlns="http://www.w3.org/2000/svg">
<rect width="51" height="44" rx="12" fill="#00FF88" fill-opacity="0.2"/>
<g clip-path="url(#clip0_40706_2722)">
<path d="M24.4235 31.6084V31.1254C24.4235 31.1137 24.4229 31.1021 24.4218 31.0904C24.2341 29.2145 23.414 27.9751 22.051 27.5067L20.7586 27.0582L18.4359 25.0864C18.0824 24.7861 17.5478 24.8075 17.219 25.1345C16.9237 25.4288 16.8735 25.8772 17.0769 26.2253L16.89 26.1393L15.8388 24.8721L15.3627 23.6615C15.1893 23.2204 14.7101 22.9678 14.2483 23.0744C14.1148 23.1052 13.9893 23.164 13.8803 23.247C13.7713 23.33 13.6812 23.4353 13.616 23.5558C13.5509 23.6764 13.5121 23.8094 13.5024 23.9461C13.4927 24.0828 13.5122 24.22 13.5597 24.3485L14.1024 25.8201C14.1114 25.8447 14.1233 25.8681 14.1376 25.8898L15.5894 28.1245C15.5976 28.1371 15.6066 28.149 15.6163 28.1606C16.1197 28.7529 16.7549 29.2363 17.4532 29.5587C18.0296 29.8248 18.8596 30.2474 19.4099 30.8421C19.5512 30.9948 19.6856 31.177 19.7796 31.6652C19.5732 31.7869 19.4344 32.0116 19.4344 32.268V33.3007C19.4344 33.6863 19.7481 34 20.1337 34H24.1907C24.5764 34 24.89 33.6863 24.89 33.3007V32.268C24.89 31.964 24.695 31.7045 24.4235 31.6084ZM17.7478 28.9203C17.1481 28.6434 16.6017 28.2294 16.1663 27.722L14.7484 25.5398L14.2192 24.1051C14.1837 24.0087 14.2135 23.929 14.2346 23.8902C14.2556 23.8513 14.3058 23.7827 14.4061 23.7596C14.5312 23.7307 14.6614 23.7992 14.7085 23.9188L15.205 25.1818C15.2188 25.2164 15.2378 25.2488 15.2616 25.2776L16.3998 26.6496C16.4334 26.6901 16.4756 26.7225 16.5234 26.7444L18.2667 27.5469L19.1859 28.5927C19.2189 28.6303 19.2596 28.6603 19.3051 28.6809C19.3507 28.7015 19.4001 28.7121 19.4501 28.712C19.5355 28.7121 19.618 28.681 19.6822 28.6245C19.7522 28.5629 19.7948 28.4761 19.8008 28.383C19.8068 28.29 19.7756 28.1983 19.714 28.1283L18.7456 27.0267C18.7433 27.0242 18.741 27.0217 18.7386 27.0192L17.7083 25.904C17.6743 25.8666 17.656 25.8176 17.6573 25.7671C17.6586 25.7166 17.6794 25.6685 17.7152 25.633C17.7868 25.5615 17.9037 25.5568 17.9809 25.6223L20.3537 27.6369C20.3869 27.6649 20.4249 27.6866 20.466 27.7008L21.8215 28.1712C22.9184 28.5482 23.5572 29.5481 23.7205 31.1432V31.5687H20.4766C20.3611 30.9456 20.1708 30.6292 19.926 30.3644C19.2909 29.6781 18.3786 29.2116 17.7478 28.9203ZM24.1869 33.2968H20.1375V32.2718H24.1869V33.2968ZM36.6816 23.5558C36.6165 23.4352 36.5264 23.3299 36.4174 23.2469C36.3084 23.1639 36.1829 23.1051 36.0494 23.0744C35.5876 22.9678 35.1084 23.2204 34.935 23.6615L34.4589 24.872L33.4077 26.1393L33.2216 26.225C33.3219 26.053 33.3623 25.8527 33.3364 25.6553C33.3106 25.458 33.2199 25.2748 33.0787 25.1345C32.75 24.8074 32.2153 24.7861 31.8619 25.0862L29.5391 27.0581L28.2478 27.5063C26.8837 27.9751 26.0635 29.2143 25.876 31.0904C25.8748 31.102 25.8742 31.1137 25.8742 31.1254V31.6084C25.6026 31.7045 25.4076 31.9638 25.4076 32.2679V33.3005C25.4076 33.6861 25.7215 33.9998 26.1069 33.9998H30.164C30.5496 33.9998 30.8633 33.6861 30.8633 33.3005V32.268C30.8633 32.0114 30.7245 31.7868 30.5183 31.665C30.612 31.1768 30.7466 30.9947 30.8878 30.8419C31.4381 30.2472 32.2681 29.8248 32.8445 29.5586C33.5428 29.2361 34.1782 28.7527 34.6814 28.1604C34.6913 28.149 34.7002 28.1369 34.7083 28.1243L36.1601 25.8898C36.1744 25.8679 36.1863 25.8445 36.1953 25.8199L36.738 24.3485C36.7855 24.22 36.805 24.0828 36.7952 23.9461C36.7855 23.8094 36.7468 23.6763 36.6816 23.5558ZM30.1602 33.2968H26.1108V32.2718H30.1602V33.2968ZM36.0785 24.1051L35.5493 25.5398L34.1313 27.722C33.6959 28.2294 33.1495 28.6434 32.5498 28.9203C31.919 29.2116 31.007 29.6779 30.3718 30.3646C30.127 30.6292 29.9367 30.9456 29.8212 31.5687H26.5773V31.1433C26.7407 29.5481 27.3795 28.5482 28.4774 28.171L29.8316 27.7009C29.8728 27.6867 29.9109 27.665 29.9441 27.6369L32.3169 25.6223C32.3943 25.557 32.5108 25.5615 32.5826 25.633C32.6572 25.7071 32.6603 25.8263 32.592 25.9016L31.5593 27.0191C31.5571 27.0216 31.5547 27.0242 31.5523 27.0267L30.5839 28.1283C30.5534 28.163 30.53 28.2033 30.5151 28.2471C30.5002 28.2908 30.4941 28.337 30.4971 28.3831C30.5001 28.4291 30.5121 28.4742 30.5325 28.5156C30.5529 28.557 30.5812 28.5941 30.6159 28.6245C30.6799 28.6811 30.7625 28.7122 30.8479 28.712C30.9453 28.712 31.0425 28.6718 31.1119 28.5927L32.0311 27.5472L33.7744 26.7446C33.8222 26.7226 33.8645 26.6901 33.898 26.6495L35.0362 25.2775C35.06 25.2488 35.0791 25.2165 35.0928 25.1818L35.5894 23.9189C35.6365 23.7992 35.7665 23.7307 35.8917 23.7596C35.992 23.7827 36.0422 23.8513 36.0633 23.8902C36.0811 23.9228 36.0917 23.9589 36.0943 23.996C36.0969 24.0331 36.0915 24.0703 36.0785 24.1051ZM30.9993 16.2871L31.7691 16.9016L31.5076 17.8512C31.4521 18.0526 31.5256 18.2619 31.6944 18.3847C31.779 18.4467 31.8812 18.4801 31.9861 18.4804C32.0808 18.4804 32.1756 18.4529 32.2594 18.3975L33.0818 17.8556L33.9043 18.3975C34.0786 18.5124 34.3004 18.5074 34.4694 18.3847C34.6382 18.2621 34.7116 18.0526 34.6561 17.8512L34.3946 16.9016L35.1644 16.2869C35.3275 16.1567 35.3913 15.9443 35.3268 15.7456C35.2622 15.5472 35.0857 15.4128 34.8773 15.4031L33.8933 15.3584L33.5465 14.4363C33.4731 14.2409 33.2907 14.1145 33.0818 14.1145C32.873 14.1145 32.6906 14.2409 32.6171 14.4363L32.2705 15.3584L31.2864 15.4031C31.0779 15.4126 30.9013 15.5472 30.8369 15.7456C30.7724 15.9443 30.8362 16.1567 30.9993 16.2871ZM32.5341 16.0501C32.6028 16.047 32.6691 16.0238 32.7247 15.9834C32.7803 15.943 32.8228 15.8871 32.847 15.8228L33.082 15.1984L33.3167 15.8228C33.3409 15.8871 33.3835 15.943 33.4392 15.9834C33.4948 16.0238 33.5611 16.047 33.6298 16.0501L34.2961 16.0806L33.7749 16.4968C33.7211 16.5397 33.6811 16.5974 33.6599 16.6628C33.6386 16.7283 33.637 16.7985 33.6552 16.8648L33.8323 17.508L33.2753 17.1409C33.2179 17.103 33.1506 17.0828 33.0819 17.0828C33.0131 17.0828 32.9458 17.103 32.8884 17.1409L32.3314 17.508L32.5085 16.8648C32.5267 16.7985 32.5251 16.7283 32.5039 16.6628C32.4826 16.5974 32.4427 16.5397 32.3889 16.4968L31.8676 16.0805L32.5341 16.0501ZM15.1333 16.2871L15.9031 16.9016L15.6416 17.8514C15.5861 18.0526 15.6595 18.2621 15.8283 18.3847C15.9973 18.5074 16.2191 18.5124 16.3934 18.3975L17.2159 17.8556L18.0382 18.3975C18.1192 18.4514 18.2143 18.4802 18.3116 18.4803C18.4138 18.4803 18.5156 18.4483 18.6033 18.3847C18.7723 18.2619 18.8455 18.0526 18.79 17.8512L18.5286 16.9016L19.2983 16.2871C19.4615 16.1567 19.5252 15.9443 19.4608 15.7457C19.3963 15.5472 19.2198 15.4128 19.0112 15.403L18.0272 15.3584L17.6806 14.4363C17.607 14.2409 17.4247 14.1145 17.2159 14.1145C17.007 14.1145 16.8246 14.2409 16.7512 14.4363L16.4046 15.3584L15.4206 15.4031C15.2118 15.4126 15.0355 15.5472 14.971 15.7456C14.9064 15.9443 14.9701 16.1567 15.1332 16.2871H15.1333ZM16.6679 16.0501C16.7366 16.047 16.8029 16.0238 16.8585 15.9834C16.9142 15.943 16.9568 15.8871 16.981 15.8228L17.2159 15.1984L17.4506 15.8228C17.4748 15.8871 17.5174 15.943 17.5731 15.9834C17.6287 16.0238 17.695 16.047 17.7638 16.0501L18.4301 16.0806L17.9088 16.4968C17.855 16.5397 17.8151 16.5974 17.7938 16.6628C17.7726 16.7283 17.771 16.7985 17.7892 16.8648L17.9663 17.508L17.4092 17.1409C17.3518 17.103 17.2846 17.0828 17.2158 17.0828C17.147 17.0828 17.0798 17.103 17.0224 17.1409L16.4654 17.508L16.6424 16.8648C16.6607 16.7985 16.6591 16.7283 16.6378 16.6629C16.6166 16.5974 16.5766 16.5397 16.5229 16.4968L16.0015 16.0805L16.6679 16.0501ZM23.0663 12.1724L23.8361 12.787L23.5746 13.7366C23.5191 13.9381 23.5926 14.1474 23.7613 14.27C23.9302 14.3927 24.1521 14.3978 24.3264 14.2828L25.1489 13.7409L25.9713 14.283C26.0523 14.3368 26.1474 14.3656 26.2446 14.3658C26.3468 14.3658 26.4486 14.3337 26.5363 14.27C26.7053 14.1474 26.7785 13.9381 26.7231 13.7366L26.4616 12.787L27.2314 12.1724C27.3945 12.0422 27.4582 11.8296 27.3938 11.6311C27.3293 11.4325 27.1528 11.298 26.9443 11.2885L25.9603 11.2436L25.6135 10.3217C25.54 10.1263 25.3577 10 25.1489 10C24.94 10 24.7576 10.1263 24.6842 10.3217L24.3374 11.2436L23.3534 11.2885C23.1448 11.298 22.9683 11.4324 22.9039 11.6311C22.8394 11.8296 22.9032 12.0422 23.0663 12.1724ZM24.6011 11.9356C24.6698 11.9325 24.7361 11.9092 24.7917 11.8687C24.8473 11.8283 24.8898 11.7724 24.914 11.708L25.1489 11.0836L25.3837 11.708C25.4079 11.7724 25.4505 11.8283 25.5061 11.8688C25.5618 11.9092 25.6281 11.9325 25.6968 11.9356L26.3631 11.9658L25.8418 12.3822C25.788 12.4251 25.7481 12.4829 25.7268 12.5483C25.7056 12.6137 25.704 12.6839 25.7223 12.7502L25.8993 13.3935L25.3424 13.0262C25.2837 12.9875 25.2163 12.9681 25.1489 12.9681C25.0815 12.9681 25.0142 12.9875 24.9553 13.0262L24.3984 13.3935L24.5754 12.7502C24.5937 12.6839 24.5921 12.6137 24.5709 12.5483C24.5496 12.4829 24.5097 12.4251 24.4559 12.3822L23.9346 11.9658L24.6011 11.9356ZM31.0826 21.1672C31.0826 17.8953 28.4206 15.2333 25.1489 15.2333C21.877 15.2333 19.215 17.8953 19.215 21.1672C19.215 24.4389 21.877 27.1009 25.1489 27.1009C28.4207 27.1009 31.0826 24.4389 31.0826 21.1672ZM25.1489 26.3978C22.2646 26.3978 19.9182 24.0513 19.9182 21.1672C19.9182 18.283 22.2646 15.9364 25.1489 15.9364C28.033 15.9364 30.3795 18.283 30.3795 21.1672C30.3795 24.0513 28.033 26.3978 25.1489 26.3978Z" fill="white"/>
<path d="M20.8375 20.8113C20.9295 20.8263 21.0238 20.8042 21.0995 20.7498C21.1752 20.6954 21.2263 20.6131 21.2414 20.5211C21.3916 19.6059 21.8645 18.7671 22.5731 18.1598C23.2893 17.546 24.2039 17.208 25.1485 17.208C26.093 17.208 27.0078 17.546 27.7237 18.1598C28.4323 18.7671 28.9053 19.6059 29.0554 20.5211C29.0689 20.6033 29.1111 20.6781 29.1746 20.7321C29.238 20.7861 29.3186 20.8158 29.4019 20.8159C29.4209 20.8159 29.4401 20.8144 29.4594 20.8111C29.5049 20.8037 29.5486 20.7873 29.5878 20.763C29.627 20.7386 29.661 20.7068 29.688 20.6693C29.7149 20.6318 29.7341 20.5894 29.7447 20.5445C29.7552 20.4995 29.7567 20.453 29.7492 20.4074C29.5724 19.3287 29.0155 18.341 28.1815 17.626C27.3379 16.9029 26.2607 16.5049 25.1485 16.5049C24.0362 16.5049 22.959 16.9029 22.1156 17.626C21.2814 18.3411 20.7245 19.3287 20.5476 20.4074C20.5325 20.4994 20.5546 20.5936 20.6089 20.6694C20.6633 20.7451 20.7455 20.7962 20.8375 20.8113ZM29.4594 21.5236C29.4138 21.5161 29.3672 21.5177 29.3223 21.5282C29.2773 21.5387 29.2348 21.558 29.1973 21.585C29.1598 21.6119 29.128 21.6459 29.1036 21.6852C29.0793 21.7244 29.0629 21.7681 29.0554 21.8137C28.9053 22.729 28.4323 23.5676 27.7237 24.175C27.0063 24.7893 26.093 25.1269 25.1485 25.1269C24.204 25.1269 23.2906 24.7893 22.5731 24.175C21.8645 23.5676 21.3916 22.729 21.2414 21.8137C21.2099 21.6221 21.029 21.4921 20.8375 21.5236C20.7919 21.5311 20.7483 21.5474 20.7091 21.5718C20.6699 21.5961 20.6358 21.6279 20.6089 21.6654C20.582 21.7029 20.5627 21.7453 20.5522 21.7903C20.5417 21.8352 20.5401 21.8818 20.5476 21.9273C20.7245 23.006 21.2814 23.9937 22.1156 24.7087C22.9589 25.4318 24.0361 25.8299 25.1485 25.8299C26.2607 25.8299 27.3379 25.4319 28.1815 24.7088C29.0155 23.9937 29.5724 23.0061 29.7492 21.9274C29.7567 21.8818 29.7551 21.8353 29.7446 21.7903C29.7341 21.7454 29.7148 21.703 29.6879 21.6655C29.661 21.628 29.627 21.5962 29.5878 21.5718C29.5486 21.5475 29.5049 21.5311 29.4594 21.5236Z" fill="white"/>
<path d="M25.211 23.322C25.2995 23.322 25.3878 23.2572 25.3878 23.1865V22.9864C26.0237 22.8979 26.4595 22.4975 26.4595 21.7733C26.4595 20.9724 25.9001 20.7133 25.3878 20.5249V19.3294C25.7999 19.3589 25.953 19.5473 26.0944 19.5473C26.2711 19.5473 26.3534 19.3235 26.3534 19.2117C26.3534 18.9231 25.7882 18.7995 25.3878 18.7876V18.6287C25.3878 18.5579 25.2993 18.4932 25.211 18.4932C25.1109 18.4932 25.0402 18.5579 25.0402 18.6286V18.7995C24.4808 18.8583 23.9214 19.1527 23.9214 19.8946C23.9214 20.6485 24.5103 20.8605 25.0402 21.0489V22.4327C24.4396 22.3856 24.2805 21.9734 24.0862 21.9734C23.939 21.9734 23.8154 22.1677 23.8154 22.3091C23.8154 22.5976 24.31 22.992 25.0402 23.0039V23.1865C25.0404 23.2572 25.1111 23.322 25.211 23.322ZM25.3524 21.1786C25.641 21.3021 25.8706 21.4671 25.8706 21.8381C25.8706 22.1736 25.6704 22.3622 25.3524 22.4209V21.1786ZM24.5103 19.8359C24.5103 19.5297 24.7458 19.3825 25.0757 19.3411V20.413C24.7635 20.2953 24.5103 20.1715 24.5103 19.8359Z" fill="white"/>
</g>
<defs>
<clipPath id="clip0_40706_2722">
<rect width="24" height="24" fill="white" transform="translate(13.5 10)"/>
</clipPath>
</defs>
</svg>
