<svg width="51" height="44" viewBox="0 0 51 44" fill="none" xmlns="http://www.w3.org/2000/svg">
<rect width="51" height="44" rx="12" fill="#00FF88" fill-opacity="0.2"/>
<g clip-path="url(#clip0_40706_2716)">
<path d="M36.8233 21.9486C37.3781 20.851 37.1483 19.5481 36.2516 18.7064L34.95 17.4847C34.6498 17.203 34.4662 16.8851 34.3723 16.4841L33.9651 14.7461C33.6846 13.5487 32.6711 12.6982 31.4431 12.6299L29.6608 12.5308C29.2497 12.5079 28.9047 12.3823 28.5751 12.1356L27.146 11.0659C26.1616 10.329 24.8384 10.3289 23.8538 11.0659L22.4248 12.1356C22.0952 12.3823 21.7501 12.5079 21.339 12.5308L19.5568 12.6299C18.3288 12.6982 17.3153 13.5487 17.0348 14.7461L16.6276 16.4841C16.5337 16.8851 16.3501 17.203 16.0499 17.4848L14.7483 18.7064C13.8516 19.548 13.6218 20.851 14.1766 21.9486L14.9819 23.5416C15.1677 23.9091 15.2315 24.2707 15.1826 24.6795L14.9707 26.452C14.8248 27.6731 15.4863 28.8189 16.6168 29.3031L18.2577 30.0058C18.6362 30.1679 18.9174 30.4039 19.1428 30.7485L20.1199 32.2424C20.7929 33.2717 22.0362 33.7242 23.2135 33.3684L24.9222 32.852C25.3164 32.7329 25.6835 32.7329 26.0776 32.852L27.7863 33.3684C28.0477 33.4478 28.3193 33.4882 28.5925 33.4885C29.4997 33.4884 30.36 33.0375 30.8799 32.2424L31.857 30.7485C32.0824 30.4039 32.3636 30.1679 32.7421 30.0058L34.383 29.303C35.5135 28.8188 36.1751 27.6731 36.0291 26.4519L35.8172 24.6794C35.7683 24.2706 35.8321 23.909 36.0178 23.5416L36.8233 21.9486ZM35.3486 23.2033C35.0966 23.7019 35.0063 24.2139 35.0726 24.7685L35.2845 26.541C35.3923 27.4426 34.9225 28.2562 34.0878 28.6137L32.4469 29.3164C31.9334 29.5364 31.5351 29.8706 31.2294 30.338L30.2523 31.832C29.7553 32.5919 28.8725 32.9132 28.0033 32.6505L26.2946 32.1341C26.0272 32.0533 25.7637 32.0129 25.4999 32.0129C25.2363 32.0129 24.9726 32.0533 24.7053 32.1341L22.9966 32.6505C22.1274 32.9132 21.2446 32.5919 20.7476 31.832L19.7706 30.338C19.4647 29.8705 19.0664 29.5363 18.553 29.3164L16.9121 28.6137C16.0773 28.2562 15.6076 27.4426 15.7154 26.541L15.9273 24.7685C15.9936 24.2139 15.9033 23.7019 15.6513 23.2033L14.846 21.6102C14.4364 20.7998 14.5994 19.8747 15.2616 19.2532L16.5632 18.0316C16.9705 17.6494 17.2304 17.1991 17.3578 16.6552L17.765 14.9172C17.9721 14.0331 18.6918 13.4292 19.5984 13.3788L21.3807 13.2797C21.9384 13.2486 22.427 13.0708 22.8742 12.7361L24.3032 11.6664C25.0302 11.1222 25.9697 11.1222 26.6966 11.6664L28.1256 12.7361C28.5729 13.0708 29.0615 13.2486 29.6192 13.2797L31.4014 13.3788C32.3081 13.4292 33.0277 14.0331 33.2348 14.9172L33.642 16.6552C33.7694 17.1992 34.0294 17.6494 34.4367 18.0316L35.7383 19.2532C36.4004 19.8746 36.5635 20.7998 36.1539 21.6102L35.3486 23.2033ZM25.5 14.334C21.2728 14.334 17.8338 17.7731 17.8338 22.0002C17.8338 26.2274 21.2728 29.6665 25.5 29.6665C29.7272 29.6665 33.1662 26.2274 33.1662 22.0002C33.1662 17.7731 29.7272 14.334 25.5 14.334ZM25.5 28.9165C21.6864 28.9165 18.5838 25.8139 18.5838 22.0002C18.5838 18.1866 21.6864 15.084 25.5 15.084C29.3136 15.084 32.4162 18.1866 32.4162 22.0002C32.4162 25.8139 29.3136 28.9165 25.5 28.9165ZM28.6918 18.5254H28.6863C28.3116 18.5269 27.9601 18.6741 27.6968 18.9401L24.5871 22.0808L23.3028 20.7965C23.0376 20.5313 22.6849 20.3852 22.3097 20.3852C21.9345 20.3852 21.5818 20.5313 21.3166 20.7965C20.769 21.3441 20.769 22.2351 21.3166 22.7827L23.5976 25.0637C23.8714 25.3374 24.231 25.4743 24.5907 25.4743C24.9503 25.4743 25.31 25.3375 25.5838 25.0637C26.4486 24.1988 27.3212 23.3137 28.1651 22.4578C28.6719 21.9433 29.1794 21.4294 29.6876 20.9161C30.2314 20.3673 30.2285 19.4779 29.6812 18.9336C29.4164 18.6702 29.0653 18.5254 28.6918 18.5254ZM29.1548 20.3881C28.6462 20.9019 28.1383 21.4163 27.6309 21.9312C26.788 22.7862 25.9164 23.6704 25.0535 24.5333C24.7983 24.7885 24.383 24.7885 24.1279 24.5333L21.847 22.2523C21.5918 21.9971 21.5918 21.5819 21.847 21.3267C21.9076 21.2658 21.9797 21.2175 22.0592 21.1846C22.1386 21.1517 22.2238 21.1349 22.3097 21.1351C22.4845 21.1351 22.6489 21.2032 22.7725 21.3267L24.3232 22.8776C24.3936 22.9479 24.489 22.9874 24.5884 22.9874H24.5893C24.6387 22.9873 24.6876 22.9774 24.7332 22.9583C24.7788 22.9392 24.8201 22.9113 24.8549 22.8762L28.2298 19.4677C28.2898 19.4068 28.3613 19.3584 28.4402 19.3254C28.519 19.2924 28.6037 19.2754 28.6892 19.2753H28.6918C28.8657 19.2753 29.0291 19.3427 29.1524 19.4653C29.407 19.7186 29.4081 20.1325 29.1548 20.3881Z" fill="white"/>
</g>
<defs>
<clipPath id="clip0_40706_2716">
<rect width="24" height="24" fill="white" transform="translate(13.5 10)"/>
</clipPath>
</defs>
</svg>
