<svg width="51" height="44" viewBox="0 0 51 44" fill="none" xmlns="http://www.w3.org/2000/svg">
<rect width="51" height="44" rx="12" fill="#00FF88" fill-opacity="0.2"/>
<path d="M37.016 31.9608H36.251V17.6031C36.251 17.5241 36.2246 17.4484 36.1778 17.3926C36.1309 17.3367 36.0673 17.3054 36.001 17.3054H33.696C33.6297 17.3054 33.5661 17.3367 33.5192 17.3926C33.4723 17.4484 33.446 17.5241 33.446 17.6031V31.9608H32.531V20.2734C32.531 20.1944 32.5046 20.1187 32.4578 20.0629C32.4109 20.0071 32.3473 19.9757 32.281 19.9757H29.9685C29.9022 19.9757 29.8386 20.0071 29.7917 20.0629C29.7448 20.1187 29.7185 20.1944 29.7185 20.2734V31.9608H28.8035V25.1764C28.8035 25.0974 28.7771 25.0217 28.7303 24.9659C28.6834 24.9101 28.6198 24.8787 28.5535 24.8787H26.251C26.1847 24.8787 26.1211 24.9101 26.0742 24.9659C26.0273 25.0217 26.001 25.0974 26.001 25.1764V31.9608H25.076V22.8931C25.076 22.8141 25.0496 22.7384 25.0028 22.6826C24.9559 22.6267 24.8923 22.5954 24.826 22.5954H22.516C22.4497 22.5954 22.3861 22.6267 22.3392 22.6826C22.2923 22.7384 22.266 22.8141 22.266 22.8931V31.9608H21.351V28.1861C21.351 28.1071 21.3246 28.0314 21.2778 27.9756C21.2309 27.9197 21.1673 27.8884 21.101 27.8884H18.7885C18.7222 27.8884 18.6586 27.9197 18.6117 27.9756C18.5648 28.0314 18.5385 28.1071 18.5385 28.1861V31.9608H17.6235V30.2223C17.6235 30.1433 17.5971 30.0676 17.5503 30.0118C17.5034 29.9559 17.4398 29.9246 17.3735 29.9246H15.0635C14.9972 29.9246 14.9336 29.9559 14.8867 30.0118C14.8398 30.0676 14.8135 30.1433 14.8135 30.2223V31.9608H13.751C13.6847 31.9608 13.6211 31.9922 13.5742 32.048C13.5273 32.1038 13.501 32.1795 13.501 32.2585V33.7023C13.501 33.7813 13.5273 33.857 13.5742 33.9128C13.6211 33.9686 13.6847 34 13.751 34H37.016C37.0823 34 37.1459 33.9686 37.1928 33.9128C37.2396 33.857 37.266 33.7813 37.266 33.7023V32.2585C37.266 32.1795 37.2396 32.1038 37.1928 32.048C37.1459 31.9922 37.0823 31.9608 37.016 31.9608ZM33.946 17.9008H35.751V31.9608H33.946V17.9008ZM30.2185 20.58H32.031V31.9608H30.2185V20.58ZM26.501 25.4741H28.311V31.9608H26.501V25.4741ZM22.766 23.1908H24.576V31.9608H22.766V23.1908ZM19.0385 28.4838H20.851V31.9608H19.0385V28.4838ZM15.3135 30.52H17.1235V31.9608H15.3135V30.52ZM36.766 33.4046H14.001V32.5562H36.766V33.4046ZM34.851 16.3111C35.3751 16.3111 35.8874 16.126 36.3232 15.7793C36.759 15.4325 37.0987 14.9397 37.2993 14.3631C37.4998 13.7865 37.5523 13.152 37.4501 12.5399C37.3478 11.9278 37.0954 11.3655 36.7248 10.9242C36.3542 10.4829 35.882 10.1824 35.368 10.0606C34.8539 9.93888 34.3211 10.0014 33.8369 10.2402C33.3526 10.479 32.9388 10.8835 32.6476 11.4024C32.3564 11.9213 32.201 12.5314 32.201 13.1555C32.2016 13.9922 32.481 14.7944 32.9779 15.386C33.4747 15.9776 34.1484 16.3103 34.851 16.3111ZM34.851 10.5954C35.2762 10.5954 35.6919 10.7455 36.0455 11.0269C36.399 11.3082 36.6746 11.708 36.8373 12.1758C37 12.6436 37.0426 13.1584 36.9597 13.655C36.8767 14.1516 36.6719 14.6078 36.3713 14.9659C36.0706 15.3239 35.6875 15.5677 35.2704 15.6665C34.8534 15.7653 34.4211 15.7146 34.0282 15.5208C33.6353 15.3271 33.2996 14.9989 33.0633 14.5779C32.8271 14.1569 32.701 13.6619 32.701 13.1555C32.7016 12.4768 32.9284 11.8261 33.3314 11.3461C33.7345 10.8662 34.281 10.5962 34.851 10.5954Z" fill="white"/>
<path d="M34.903 14.0127H34.8005C34.7554 14.0127 34.7121 13.9913 34.6803 13.9534C34.6484 13.9154 34.6305 13.8639 34.6305 13.8102C34.6305 13.7313 34.6041 13.6555 34.5573 13.5997C34.5104 13.5439 34.4468 13.5125 34.3805 13.5125C33.9805 13.5125 34.0705 14.3699 34.6005 14.5664V14.8283C34.6005 14.9073 34.6268 14.983 34.6737 15.0388C34.7206 15.0947 34.7842 15.126 34.8505 15.126C34.9168 15.126 34.9804 15.0947 35.0273 15.0388C35.0741 14.983 35.1005 14.9073 35.1005 14.8283V14.5574C35.2364 14.5078 35.3554 14.4076 35.44 14.2715C35.5246 14.1354 35.5703 13.9706 35.5705 13.8013V13.4649C35.5705 13.307 35.5178 13.1556 35.424 13.0439C35.3303 12.9322 35.2031 12.8695 35.0705 12.8695H34.6405V12.5004C34.6401 12.4737 34.6443 12.4472 34.6527 12.4224C34.6612 12.3977 34.6737 12.3752 34.6895 12.3563C34.7054 12.3375 34.7242 12.3226 34.745 12.3125C34.7658 12.3025 34.7881 12.2975 34.8105 12.2979H34.913C34.9352 12.2979 34.9572 12.3032 34.9777 12.3134C34.9981 12.3236 35.0167 12.3386 35.0323 12.3574C35.0479 12.3762 35.0602 12.3986 35.0684 12.4231C35.0767 12.4477 35.0808 12.4739 35.0805 12.5004C35.0805 12.5793 35.1068 12.655 35.1537 12.7109C35.2006 12.7667 35.2642 12.7981 35.3305 12.7981C35.7305 12.7981 35.6405 11.9407 35.1105 11.7413V11.4823C35.1105 11.4033 35.0841 11.3276 35.0373 11.2718C34.9904 11.2159 34.9268 11.1846 34.8605 11.1846C34.7942 11.1846 34.7306 11.2159 34.6837 11.2718C34.6368 11.3276 34.6105 11.4033 34.6105 11.4823V11.7413C34.4746 11.7919 34.3557 11.8928 34.2712 12.0293C34.1867 12.1658 34.1409 12.3308 34.1405 12.5004V12.8457C34.1405 13.0036 34.1932 13.155 34.2869 13.2667C34.3807 13.3784 34.5079 13.4411 34.6405 13.4411H35.0705V13.7864C35.0733 13.8147 35.0711 13.8433 35.0639 13.8705C35.0568 13.8977 35.045 13.9227 35.0292 13.9441C35.0134 13.9654 34.994 13.9826 34.9722 13.9944C34.9505 14.0062 34.9269 14.0124 34.903 14.0127ZM13.7505 27.7303C13.8155 27.734 13.8792 27.7073 13.928 27.6559L17.623 23.2441L19.023 24.9112C19.0462 24.9391 19.0739 24.9612 19.1043 24.9763C19.1348 24.9915 19.1675 24.9992 19.2005 24.9992C19.2335 24.9992 19.2662 24.9915 19.2966 24.9763C19.3271 24.9612 19.3547 24.9391 19.378 24.9112L24.408 18.9216L26.583 21.5086C26.6298 21.564 26.6932 21.5951 26.7592 21.5951C26.8253 21.5951 26.8886 21.564 26.9355 21.5086L30.9105 16.7752V18.103C30.9105 18.1819 30.9368 18.2576 30.9837 18.3135C31.0306 18.3693 31.0942 18.4006 31.1605 18.4006C31.2268 18.4006 31.2904 18.3693 31.3373 18.3135C31.3841 18.2576 31.4105 18.1819 31.4105 18.103V16.0459C31.4107 15.9866 31.3961 15.9286 31.3685 15.8793C31.3409 15.8299 31.3015 15.7916 31.2555 15.769C31.188 15.7363 31.2805 15.7482 29.4405 15.7482C29.3742 15.7482 29.3106 15.7796 29.2637 15.8354C29.2168 15.8912 29.1905 15.9669 29.1905 16.0459C29.1905 16.1248 29.2168 16.2006 29.2637 16.2564C29.3106 16.3122 29.3742 16.3436 29.4405 16.3436H30.5555L26.7505 20.8774L24.578 18.2905C24.5311 18.2351 24.4678 18.2039 24.4017 18.2039C24.3357 18.2039 24.2723 18.2351 24.2255 18.2905L19.2005 24.2801L17.8005 22.61C17.7772 22.5821 17.7496 22.56 17.7191 22.5449C17.6887 22.5297 17.656 22.522 17.623 22.522C17.59 22.522 17.5573 22.5297 17.5268 22.5449C17.4964 22.56 17.4687 22.5821 17.4455 22.61L13.573 27.2213C13.5377 27.2629 13.5137 27.3161 13.5039 27.3741C13.4941 27.4321 13.4991 27.4922 13.5181 27.5468C13.5372 27.6014 13.5694 27.648 13.6108 27.6807C13.6522 27.7134 13.7008 27.7307 13.7505 27.7303Z" fill="white"/>
</svg>
