<svg width="48" height="48" viewBox="0 0 48 48" fill="none" xmlns="http://www.w3.org/2000/svg">
<path d="M0 12C0 5.37258 5.37258 0 12 0H36C42.6274 0 48 5.37258 48 12V36C48 42.6274 42.6274 48 36 48H12C5.37258 48 0 42.6274 0 36V12Z" fill="#01CC6B"/>
<path d="M31.0702 16.9298C29.5131 15.371 27.4848 14.3701 25.3004 14.0826C23.1159 13.7951 20.8977 14.237 18.9902 15.3398" stroke="white" stroke-width="2" stroke-linecap="round" stroke-linejoin="round"/>
<path d="M16 18H16.01" stroke="white" stroke-width="2" stroke-linecap="round" stroke-linejoin="round"/>
<path d="M14.2904 21.6201C13.9154 23.1472 13.9059 24.7411 14.2626 26.2725C14.6192 27.804 15.332 29.2297 16.343 30.434C17.354 31.6383 18.6347 32.5872 20.0812 33.2037C21.5278 33.8202 23.0993 34.0869 24.6682 33.9822C26.2371 33.8774 27.7592 33.4041 29.1109 32.6008C30.4626 31.7975 31.6058 30.6867 32.4478 29.3587C33.2897 28.0306 33.8065 26.5228 33.9564 24.9575C34.1063 23.3923 33.885 21.8138 33.3104 20.3501" stroke="white" stroke-width="2" stroke-linecap="round" stroke-linejoin="round"/>
<path d="M28.2403 19.7599C27.6648 19.1811 26.9773 18.7258 26.2197 18.4218C25.4622 18.1178 24.6506 17.9716 23.8346 17.9921C23.0187 18.0126 22.2155 18.1994 21.4742 18.541C20.7328 18.8826 20.069 19.3719 19.5233 19.9789C18.9777 20.5859 18.5616 21.2979 18.3005 22.0713C18.0394 22.8446 17.9389 23.6631 18.0051 24.4767C18.0713 25.2902 18.3028 26.0817 18.6854 26.8027C19.068 27.5237 19.5937 28.1591 20.2303 28.6699" stroke="white" stroke-width="2" stroke-linecap="round" stroke-linejoin="round"/>
<path d="M24 30H24.01" stroke="white" stroke-width="2" stroke-linecap="round" stroke-linejoin="round"/>
<path d="M29.9895 23.6602C30.0439 24.6115 29.8709 25.5622 29.4849 26.4334C29.0988 27.3046 28.5108 28.0714 27.7695 28.6702" stroke="white" stroke-width="2" stroke-linecap="round" stroke-linejoin="round"/>
<path d="M24 26C25.1046 26 26 25.1046 26 24C26 22.8954 25.1046 22 24 22C22.8954 22 22 22.8954 22 24C22 25.1046 22.8954 26 24 26Z" stroke="white" stroke-width="2" stroke-linecap="round" stroke-linejoin="round"/>
<path d="M25.4102 22.5902L31.0702 16.9302" stroke="white" stroke-width="2" stroke-linecap="round" stroke-linejoin="round"/>
</svg>
