<svg width="48" height="48" viewBox="0 0 48 48" fill="none" xmlns="http://www.w3.org/2000/svg">
<path d="M0 12C0 5.37258 5.37258 0 12 0H36C42.6274 0 48 5.37258 48 12V36C48 42.6274 42.6274 48 36 48H12C5.37258 48 0 42.6274 0 36V12Z" fill="#01CC6B"/>
<path d="M24.8305 14.1799C24.5699 14.061 24.2868 13.9995 24.0005 13.9995C23.7141 13.9995 23.431 14.061 23.1705 14.1799L14.6005 18.0799C14.423 18.1581 14.2721 18.2863 14.1662 18.4487C14.0603 18.6112 14.0039 18.8009 14.0039 18.9949C14.0039 19.1888 14.0603 19.3786 14.1662 19.541C14.2721 19.7035 14.423 19.8316 14.6005 19.9099L23.1805 23.8199C23.441 23.9387 23.7241 24.0002 24.0105 24.0002C24.2968 24.0002 24.5799 23.9387 24.8405 23.8199L33.4205 19.9199C33.5979 19.8416 33.7488 19.7135 33.8547 19.551C33.9606 19.3886 34.017 19.1988 34.017 19.0049C34.017 18.8109 33.9606 18.6212 33.8547 18.4587C33.7488 18.2963 33.5979 18.1681 33.4205 18.0899L24.8305 14.1799Z" stroke="white" stroke-width="2" stroke-linecap="round" stroke-linejoin="round"/>
<path d="M14 24C13.9995 24.1913 14.0539 24.3787 14.1567 24.5399C14.2595 24.7012 14.4064 24.8297 14.58 24.91L23.18 28.82C23.4392 28.9374 23.7205 28.9981 24.005 28.9981C24.2895 28.9981 24.5708 28.9374 24.83 28.82L33.41 24.92C33.587 24.8404 33.737 24.7111 33.8418 24.5477C33.9466 24.3844 34.0015 24.1941 34 24" stroke="white" stroke-width="2" stroke-linecap="round" stroke-linejoin="round"/>
<path d="M14 29C13.9995 29.1913 14.0539 29.3787 14.1567 29.5399C14.2595 29.7012 14.4064 29.8297 14.58 29.91L23.18 33.82C23.4392 33.9374 23.7205 33.9981 24.005 33.9981C24.2895 33.9981 24.5708 33.9374 24.83 33.82L33.41 29.92C33.587 29.8404 33.737 29.7111 33.8418 29.5477C33.9466 29.3844 34.0015 29.1941 34 29" stroke="white" stroke-width="2" stroke-linecap="round" stroke-linejoin="round"/>
</svg>
