<svg width="48" height="48" viewBox="0 0 48 48" fill="none" xmlns="http://www.w3.org/2000/svg">
<path d="M0 12C0 5.37258 5.37258 0 12 0H36C42.6274 0 48 5.37258 48 12V36C48 42.6274 42.6274 48 36 48H12C5.37258 48 0 42.6274 0 36V12Z" fill="#01CC6B"/>
<path d="M21.9374 27.4998C21.8482 27.1537 21.6678 26.8379 21.415 26.5851C21.1623 26.3324 20.8465 26.152 20.5004 26.0628L14.3654 24.4808C14.2608 24.4511 14.1686 24.388 14.103 24.3012C14.0374 24.2144 14.002 24.1086 14.002 23.9998C14.002 23.891 14.0374 23.7851 14.103 23.6983C14.1686 23.6115 14.2608 23.5485 14.3654 23.5188L20.5004 21.9358C20.8464 21.8466 21.1621 21.6663 21.4148 21.4138C21.6675 21.1613 21.848 20.8456 21.9374 20.4998L23.5194 14.3648C23.5488 14.2597 23.6118 14.1671 23.6987 14.1012C23.7857 14.0352 23.8918 13.9995 24.0009 13.9995C24.11 13.9995 24.2162 14.0352 24.3031 14.1012C24.39 14.1671 24.453 14.2597 24.4824 14.3648L26.0634 20.4998C26.1527 20.8458 26.3331 21.1617 26.5858 21.4144C26.8385 21.6671 27.1544 21.8475 27.5004 21.9368L33.6354 23.5178C33.7409 23.5469 33.834 23.6098 33.9003 23.6968C33.9666 23.7839 34.0025 23.8903 34.0025 23.9998C34.0025 24.1092 33.9666 24.2156 33.9003 24.3027C33.834 24.3898 33.7409 24.4527 33.6354 24.4818L27.5004 26.0628C27.1544 26.152 26.8385 26.3324 26.5858 26.5851C26.3331 26.8379 26.1527 27.1537 26.0634 27.4998L24.4814 33.6348C24.452 33.7398 24.389 33.8324 24.3021 33.8984C24.2152 33.9643 24.109 34 23.9999 34C23.8908 34 23.7847 33.9643 23.6977 33.8984C23.6108 33.8324 23.5478 33.7398 23.5184 33.6348L21.9374 27.4998Z" stroke="white" stroke-width="2" stroke-linecap="round" stroke-linejoin="round"/>
<path d="M32 15V19" stroke="white" stroke-width="2" stroke-linecap="round" stroke-linejoin="round"/>
<path d="M34 17H30" stroke="white" stroke-width="2" stroke-linecap="round" stroke-linejoin="round"/>
<path d="M16 29V31" stroke="white" stroke-width="2" stroke-linecap="round" stroke-linejoin="round"/>
<path d="M17 30H15" stroke="white" stroke-width="2" stroke-linecap="round" stroke-linejoin="round"/>
</svg>
