<svg width="48" height="48" viewBox="0 0 48 48" fill="none" xmlns="http://www.w3.org/2000/svg">
<path d="M8 0.5H40C44.1421 0.5 47.5 3.85786 47.5 8V40C47.5 44.1421 44.1421 47.5 40 47.5H8C3.85786 47.5 0.5 44.1421 0.5 40V8C0.500001 3.85786 3.85787 0.5 8 0.5Z" fill="#1A1A23"/>
<path d="M8 0.5H40C44.1421 0.5 47.5 3.85786 47.5 8V40C47.5 44.1421 44.1421 47.5 40 47.5H8C3.85786 47.5 0.5 44.1421 0.5 40V8C0.500001 3.85786 3.85787 0.5 8 0.5Z" stroke="#2A2A35"/>
<path d="M31 23H17C15.8954 23 15 23.8954 15 25V32C15 33.1046 15.8954 34 17 34H31C32.1046 34 33 33.1046 33 32V25C33 23.8954 32.1046 23 31 23Z" stroke="#22D3EE" stroke-width="2" stroke-linecap="round" stroke-linejoin="round"/>
<path d="M19 23V19C19 17.6739 19.5268 16.4021 20.4645 15.4645C21.4021 14.5268 22.6739 14 24 14C25.3261 14 26.5979 14.5268 27.5355 15.4645C28.4732 16.4021 29 17.6739 29 19V23" stroke="#22D3EE" stroke-width="2" stroke-linecap="round" stroke-linejoin="round"/>
</svg>
