<svg width="48" height="48" viewBox="0 0 48 48" fill="none" xmlns="http://www.w3.org/2000/svg">
<path d="M8 0.5H40C44.1421 0.5 47.5 3.85786 47.5 8V40C47.5 44.1421 44.1421 47.5 40 47.5H8C3.85786 47.5 0.5 44.1421 0.5 40V8C0.500001 3.85786 3.85787 0.5 8 0.5Z" fill="#1A1A23"/>
<path d="M8 0.5H40C44.1421 0.5 47.5 3.85786 47.5 8V40C47.5 44.1421 44.1421 47.5 40 47.5H8C3.85786 47.5 0.5 44.1421 0.5 40V8C0.500001 3.85786 3.85787 0.5 8 0.5Z" stroke="#2A2A35"/>
<path d="M28 32V16C28 15.4696 27.7893 14.9609 27.4142 14.5858C27.0391 14.2107 26.5304 14 26 14H22C21.4696 14 20.9609 14.2107 20.5858 14.5858C20.2107 14.9609 20 15.4696 20 16V32" stroke="#22D3EE" stroke-width="2" stroke-linecap="round" stroke-linejoin="round"/>
<path d="M32 18H16C14.8954 18 14 18.8954 14 20V30C14 31.1046 14.8954 32 16 32H32C33.1046 32 34 31.1046 34 30V20C34 18.8954 33.1046 18 32 18Z" stroke="#22D3EE" stroke-width="2" stroke-linecap="round" stroke-linejoin="round"/>
</svg>
