<svg width="48" height="48" viewBox="0 0 48 48" fill="none" xmlns="http://www.w3.org/2000/svg">
<path d="M8 0.5H40C44.1421 0.5 47.5 3.85786 47.5 8V40C47.5 44.1421 44.1421 47.5 40 47.5H8C3.85786 47.5 0.5 44.1421 0.5 40V8C0.500001 3.85786 3.85787 0.5 8 0.5Z" fill="#1A1A23"/>
<path d="M8 0.5H40C44.1421 0.5 47.5 3.85786 47.5 8V40C47.5 44.1421 44.1421 47.5 40 47.5H8C3.85786 47.5 0.5 44.1421 0.5 40V8C0.500001 3.85786 3.85787 0.5 8 0.5Z" stroke="#2A2A35"/>
<path d="M32 25C32 30 28.5 32.5 24.34 33.95C24.1222 34.0238 23.8855 34.0203 23.67 33.94C19.5 32.5 16 30 16 25V18C16 17.7348 16.1054 17.4804 16.2929 17.2929C16.4804 17.1054 16.7348 17 17 17C19 17 21.5 15.8 23.24 14.28C23.4519 14.099 23.7214 13.9996 24 13.9996C24.2786 13.9996 24.5481 14.099 24.76 14.28C26.51 15.81 29 17 31 17C31.2652 17 31.5196 17.1054 31.7071 17.2929C31.8946 17.4804 32 17.7348 32 18V25Z" stroke="#10B981" stroke-width="2" stroke-linecap="round" stroke-linejoin="round"/>
</svg>
