<svg width="48" height="48" viewBox="0 0 48 48" fill="none" xmlns="http://www.w3.org/2000/svg">
<path d="M8 0.5H40C44.1421 0.5 47.5 3.85786 47.5 8V40C47.5 44.1421 44.1421 47.5 40 47.5H8C3.85786 47.5 0.5 44.1421 0.5 40V8C0.500001 3.85786 3.85787 0.5 8 0.5Z" fill="#1A1A23"/>
<path d="M8 0.5H40C44.1421 0.5 47.5 3.85786 47.5 8V40C47.5 44.1421 44.1421 47.5 40 47.5H8C3.85786 47.5 0.5 44.1421 0.5 40V8C0.500001 3.85786 3.85787 0.5 8 0.5Z" stroke="#2A2A35"/>
<path d="M28 19H34V25" stroke="#10B981" stroke-width="2" stroke-linecap="round" stroke-linejoin="round"/>
<path d="M34 19L25.5 27.5L20.5 22.5L14 29" stroke="#10B981" stroke-width="2" stroke-linecap="round" stroke-linejoin="round"/>
</svg>
